<svg xmlns="http://www.w3.org/2000/svg" xmlns:xlink="http://www.w3.org/1999/xlink" version="1.1" x="0px" y="0px" viewBox="0.5 0.5 100 125" enable-background="new 0.5 0.5 100 100" xml:space="preserve"><path d="M63.512,31.339c-0.505-0.216-1.096,0.014-1.315,0.521c-0.219,0.507,0.014,1.095,0.521,1.315  c8.705,3.767,15.005,11.255,17.409,20.127c-1.627-1.215-3.59-4.043-4.745-6.202c-0.004-0.008-0.012-0.014-0.016-0.022  c-0.016-0.027-0.037-0.049-0.055-0.074c-0.047-0.067-0.1-0.127-0.161-0.179c-0.034-0.03-0.068-0.057-0.106-0.082  c-0.064-0.041-0.133-0.073-0.204-0.099c-0.051-0.019-0.1-0.034-0.154-0.045c-0.066-0.013-0.132-0.027-0.199-0.027  c-0.026,0-0.05,0.009-0.076,0.012c-0.018,0.002-0.034-0.005-0.052-0.003l-6.593,0.942c-1.815-2.512-3.526-6.82-4.46-10.217  c-0.007-0.025-0.023-0.045-0.031-0.069c-0.015-0.042-0.033-0.079-0.054-0.119c-0.036-0.07-0.079-0.133-0.13-0.192  c-0.026-0.031-0.05-0.061-0.08-0.088c-0.068-0.063-0.145-0.113-0.229-0.154c-0.023-0.011-0.041-0.028-0.064-0.037  c-0.1-0.041-0.207-0.068-0.319-0.074c-0.012-0.001-0.022,0.003-0.033,0.003c-0.009,0-0.016-0.005-0.024-0.005h-5.835  c-2.301-3.38-4.677-9.537-6.045-14.345c-0.126-0.441-0.552-0.736-0.993-0.726c-0.458,0.014-0.848,0.338-0.946,0.786  c-0.662,3.021-3.271,10.924-7.346,11.216c-1.124,0.083-2.076-0.044-2.889-0.283c0.024-0.011,0.048-0.023,0.072-0.034  c0.507-0.22,0.739-0.809,0.52-1.315c-0.219-0.507-0.81-0.739-1.315-0.52c-0.518,0.225-1.025,0.469-1.528,0.719  c-1.114-0.88-1.594-1.845-1.629-1.92c-0.197-0.426-0.665-0.653-1.123-0.556c-0.459,0.103-0.785,0.509-0.785,0.978v3.537  c-9.148,6.078-14.609,16.245-14.609,27.219c0,11.339,5.811,21.343,14.609,27.201v0.042h0.066c5.162,3.419,11.344,5.417,17.985,5.417  c18.008,0,32.66-14.651,32.66-32.66C83.211,48.29,75.479,36.519,63.512,31.339z M72.183,48.912c-0.471,0.391-1.04,0.692-1.683,0.692  c-0.323,0-0.654-0.111-0.989-0.31L72.183,48.912z M60.497,38.571c-0.291,0.286-0.631,0.5-0.997,0.5c-0.39,0-0.802-0.18-1.227-0.5  H60.497z M19.891,61.327c0-9.849,4.692-19,12.609-24.773V72.5c0,0.553,0.448,1,1,1h2v1.073l-3-0.001v11.517  C24.864,80.507,19.891,71.489,19.891,61.327z M48.5,76.5v15.411c-5.107-0.339-9.876-1.93-14-4.474V76.5H48.5z M37.5,74.573V73.5h2  v1.074L37.5,74.573z M41.5,74.575V73.5h2v1.076L41.5,74.575z M45.5,74.576V73.5h2v1.077L45.5,74.576z M49.5,74.495v-0.924  c0.079,0,0.149-0.028,0.222-0.045l1.778,0.212v1.064l-1.535-0.175C49.825,74.551,49.671,74.496,49.5,74.495z M50.5,91.986  l-0.005-15.37l3.005,0.353v14.874c-0.971,0.093-1.954,0.145-2.949,0.145C50.534,91.987,50.517,91.986,50.5,91.986z M53.5,75.031  v-1.054l2,0.238v1.044L53.5,75.031z M62.5,78.024v11.539c-1.601,0.68-3.274,1.219-5,1.621V77.438L62.5,78.024z M57.5,75.487v-1.033  l2,0.238v1.023L57.5,75.487z M75.5,77.539v-0.994l1.549,0.177c-0.183,0.313-0.37,0.623-0.564,0.929L75.5,77.539z M73.5,77.311  l-8-0.912v-0.808c0.147-1.156,2.038-2.301,4.278-2.053c2.249,0.249,3.792,1.674,3.722,2.809V77.311z M66.5,78.493l5,0.586v4.606  c-1.53,1.434-3.202,2.718-5,3.818V78.493z M63.5,76.171l-2-0.228V74.93l2,0.238V76.171z M78.07,74.827l-3.052-0.349  c-0.853-1.505-2.736-2.676-5.021-2.929c-2.189-0.241-4.257,0.485-5.454,1.733L50.5,71.618V33.5c0-0.552-0.448-1-1-1s-1,0.448-1,1v38  h-14V33.397c1.371,1.193,3.555,2.333,6.821,2.101c4.32-0.311,6.936-5.825,8.21-9.514c1.819,5.49,5.623,15.087,9.969,15.087  c1.049,0,1.876-0.537,2.485-1.166c3.49,11.106,7.672,11.699,8.515,11.699c1.777,0,3.108-1.143,3.931-2.14  c1.293,2.134,3.757,5.649,6.256,6.318c0.332,1.81,0.524,3.66,0.524,5.545C81.211,66.17,80.078,70.751,78.07,74.827z"/><path d="M44.5,41.5c0.553,0,1-0.448,1-1v-1h-2v1C43.5,41.052,43.947,41.5,44.5,41.5z"/><path d="M41.5,39.5c0.553,0,1-0.448,1-1v-1h-2v1C40.5,39.052,40.947,39.5,41.5,39.5z"/><path d="M45.5,46.5c0,0.552,0.447,1,1,1s1-0.448,1-1v-1h-2V46.5z"/><path d="M45.5,42.5c0,0.552,0.447,1,1,1s1-0.448,1-1v-1h-2V42.5z"/><path d="M54.5,43.5v-1h-2v1c0,0.552,0.447,1,1,1S54.5,44.052,54.5,43.5z"/><path d="M57.5,47.5c0.553,0,1-0.448,1-1v-1h-2v1C56.5,47.052,56.947,47.5,57.5,47.5z"/><path d="M60.5,49.5c0,0.552,0.447,1,1,1s1-0.448,1-1v-1h-2V49.5z"/><path d="M60.5,53.5h-2v1c0,0.552,0.447,1,1,1s1-0.448,1-1V53.5z"/><path d="M56.5,59.5c0,0.552,0.447,1,1,1s1-0.448,1-1v-1h-2V59.5z"/><path d="M60.5,60.5c0,0.552,0.447,1,1,1s1-0.448,1-1v-1h-2V60.5z"/><path d="M53.5,50.5c0,0.552,0.447,1,1,1s1-0.448,1-1v-1h-2V50.5z"/><path d="M53.5,56.5c0,0.552,0.447,1,1,1s1-0.448,1-1v-1h-2V56.5z"/><path d="M53.5,64.5c0,0.552,0.447,1,1,1s1-0.448,1-1v-1h-2V64.5z"/><path d="M56.5,66.5c0,0.552,0.447,1,1,1s1-0.448,1-1v-1h-2V66.5z"/><path d="M44.5,52.5c0,0.552,0.447,1,1,1s1-0.448,1-1v-1h-2V52.5z"/><path d="M44.5,55.5h-2v1c0,0.552,0.447,1,1,1s1-0.448,1-1V55.5z"/><path d="M44.5,62.5c0,0.552,0.447,1,1,1s1-0.448,1-1v-1h-2V62.5z"/><path d="M41.5,66.5c0,0.552,0.447,1,1,1s1-0.448,1-1v-1h-2V66.5z"/><path d="M38.5,68.5c0,0.552,0.447,1,1,1s1-0.448,1-1v-1h-2V68.5z"/><path d="M38.5,61.5h-2v1c0,0.552,0.447,1,1,1s1-0.448,1-1V61.5z"/><path d="M38.5,64.5c0,0.552,0.447,1,1,1s1-0.448,1-1v-1h-2V64.5z"/><path d="M41.5,56.5h-2v1c0,0.552,0.447,1,1,1s1-0.448,1-1V56.5z"/><path d="M36.5,55.5c0,0.552,0.447,1,1,1s1-0.448,1-1v-1h-2V55.5z"/><path d="M38.5,60.5c0,0.552,0.447,1,1,1s1-0.448,1-1v-1h-2V60.5z"/><path d="M39.5,52.5c0,0.552,0.447,1,1,1s1-0.448,1-1v-1h-2V52.5z"/><path d="M38.5,49.5h-2v1c0,0.552,0.447,1,1,1s1-0.448,1-1V49.5z"/><path d="M41.5,48.5c0,0.552,0.447,1,1,1s1-0.448,1-1v-1h-2V48.5z"/><path d="M39.5,46.5c0.553,0,1-0.448,1-1v-1h-2v1C38.5,46.052,38.947,46.5,39.5,46.5z"/><path d="M37.5,42.5v-1h-2v1c0,0.552,0.447,1,1,1S37.5,43.052,37.5,42.5z"/><path d="M73.5,58.5c0,1.104,0.896,2,2,2s2-0.896,2-2v-1h-4V58.5z"/><path d="M73.5,65.5c0,1.104,0.896,2,2,2s2-0.896,2-2v-1h-4V65.5z"/><path d="M67.5,67.5c0,1.104,0.896,2,2,2s2-0.896,2-2v-1h-4V67.5z"/><path d="M39.5,84.5h4c0.552,0,1-0.447,1-1v-3c0-0.553-0.448-1-1-1h-4c-0.552,0-1,0.447-1,1v3C38.5,84.053,38.948,84.5,39.5,84.5z"/></svg>