<svg xmlns="http://www.w3.org/2000/svg" xmlns:xlink="http://www.w3.org/1999/xlink" version="1.1" x="0px" y="0px" viewBox="0 0 100 125" enable-background="new 0 0 100 100" xml:space="preserve"><path d="M62.397,31.082c-0.512-0.219-1.096,0.015-1.315,0.521c-0.219,0.507,0.014,1.095,0.521,1.315C73.205,37.939,81,49.224,81,61  c0,14.782-10.969,27.541-25.027,30.399L55.716,86H56c0.553,0,1-0.447,1-1s-0.447-1-1-1h-0.38l-0.286-6H56c0.553,0,1-0.447,1-1  s-0.447-1-1-1h-0.761l-0.229-4.809c5.001-1.998,8.549-6.882,8.549-12.588c0-0.339-0.017-0.673-0.041-1.005  C63.13,52.302,59.671,47.871,54.975,46H57c0.553,0,1-0.448,1-1s-0.447-1-1-1h-3v-6h2c0.553,0,1-0.448,1-1s-0.447-1-1-1h-3V7  c0-0.552-0.447-1-1-1h-4c-0.552,0-1,0.448-1,1v29h-3c-0.552,0-1,0.448-1,1s0.448,1,1,1h2v6h-3c-0.552,0-1,0.448-1,1s0.448,1,1,1  h2.025c-4.696,1.871-8.153,6.3-8.543,11.595c0,0.001-0.001,0.002-0.001,0.003c-0.024,0.332-0.041,0.666-0.041,1.005  c0,5.706,3.548,10.59,8.549,12.588L44.761,76H44c-0.552,0-1,0.447-1,1s0.448,1,1,1h0.665l-0.286,6H44c-0.552,0-1,0.447-1,1  s0.448,1,1,1h0.284l-0.256,5.384C29.962,88.493,19,75.753,19,61c0-11.764,7.795-23.049,19.398-28.083  c0.507-0.22,0.739-0.809,0.52-1.315c-0.22-0.506-0.81-0.74-1.315-0.52C25.279,36.428,17,48.451,17,61c0,17.888,15.136,33,33.051,33  C68.22,94,83,79.196,83,61C83,48.438,74.721,36.416,62.397,31.082z M43.295,68h13.411c-1.894,1.355-4.205,2.162-6.705,2.162  C47.499,70.162,45.188,69.355,43.295,68z M49,47.532v9.14h-2.803C46.477,52.128,47.711,48.74,49,47.532z M51,47.532  c1.289,1.208,2.523,4.596,2.803,9.14H51V47.532z M55.803,56.672c-0.182-3.053-0.811-6.036-1.844-8.22  c2.207,1.662,3.836,4.656,4.274,8.22H55.803z M46.041,48.452c-1.033,2.184-1.662,5.167-1.844,8.22h-2.43  C42.205,53.107,43.834,50.114,46.041,48.452z M40.676,58.672h4.475h9.697h4.476h2.235c-0.003,0.45-0.038,0.892-0.091,1.328H38.531  c-0.053-0.436-0.088-0.878-0.091-1.328H40.676z M61.046,62c-0.457,1.481-1.201,2.837-2.172,4H41.126  c-0.971-1.163-1.715-2.519-2.172-4H61.046z M61.395,56.672h-1.159c-0.242-2.218-0.892-4.259-1.852-5.992  C59.922,52.304,61.005,54.367,61.395,56.672z M51,21h-2V8h2V21z M49,23h2v5h-2V23z M49,30h2v6h-2V30z M48,38h4v6h-4V38z   M41.618,50.677c-0.96,1.733-1.611,3.776-1.853,5.995h-1.159C38.995,54.366,40.079,52.302,41.618,50.677z M46.963,71.807  c0.978,0.225,1.992,0.355,3.037,0.355s2.059-0.13,3.037-0.355l0.2,4.193h-6.474L46.963,71.807z M46.668,78h6.664l0.286,6h-7.235  L46.668,78z M46.015,91.716L46.287,86h7.426l0.273,5.728C52.694,91.901,51.382,92,50.051,92C48.686,92,47.34,91.897,46.015,91.716z   M56.166,64.159l1-1.511c0.305-0.461,0.924-0.588,1.386-0.282c0.461,0.305,0.587,0.926,0.282,1.386l-1,1.511  c-0.192,0.291-0.511,0.448-0.835,0.448c-0.189,0-0.381-0.054-0.551-0.166C55.987,65.24,55.861,64.619,56.166,64.159z M52.166,64.159  l1-1.511c0.305-0.461,0.925-0.588,1.386-0.282c0.461,0.305,0.587,0.926,0.282,1.386l-1,1.511c-0.192,0.291-0.511,0.448-0.835,0.448  c-0.189,0-0.381-0.054-0.551-0.166C51.987,65.24,51.861,64.619,52.166,64.159z M41.166,63.752c-0.305-0.46-0.179-1.081,0.282-1.386  c0.458-0.306,1.081-0.179,1.386,0.282l1,1.511c0.305,0.46,0.179,1.081-0.282,1.386c-0.169,0.112-0.361,0.166-0.551,0.166  c-0.324,0-0.643-0.157-0.835-0.448L41.166,63.752z M45.166,63.752c-0.305-0.46-0.179-1.081,0.282-1.386  c0.459-0.306,1.081-0.179,1.386,0.282l1,1.511c0.305,0.46,0.179,1.081-0.282,1.386c-0.169,0.112-0.361,0.166-0.551,0.166  c-0.324,0-0.643-0.157-0.835-0.448L45.166,63.752z M49,64.711V63.2c0-0.553,0.448-1,1-1s1,0.447,1,1v1.511c0,0.553-0.448,1-1,1  S49,65.264,49,64.711z"/><text x="0" y="115" fill="#000000" font-size="5px" font-weight="bold" font-family="'Helvetica Neue', Helvetica, Arial-Unicode, Arial, Sans-serif">Created by Fabien Jouin</text><text x="0" y="120" fill="#000000" font-size="5px" font-weight="bold" font-family="'Helvetica Neue', Helvetica, Arial-Unicode, Arial, Sans-serif">from the Noun Project</text></svg>