<svg xmlns="http://www.w3.org/2000/svg" data-name="ICON BLACK" viewBox="0 0 32 40" x="0px" y="0px"><title>berlin</title><path d="M2.6,10.16a.51.51,0,0,0-.08.45l1.11,3.45a.5.5,0,0,0,.48.35h.77v12h-.4A.5.5,0,0,0,4,27V29a.5.5,0,0,0,.5.5h23A.5.5,0,0,0,28,29V27a.5.5,0,0,0-.5-.5h-.39v-12h.76a.5.5,0,0,0,.48-.35l1.11-3.45a.51.51,0,0,0-.08-.45A.49.49,0,0,0,29,10h-.47l1-4a.49.49,0,0,0-.1-.42.5.5,0,0,0-.39-.2H22.3a.51.51,0,0,0-.5.5.5.5,0,0,0,.5.5h6.07L27.5,10H4.5L3.63,6.34h8.05V8.29a.5.5,0,0,0,.5.5h7.64a.5.5,0,0,0,.5-.5V3.11a.5.5,0,0,0-.5-.5H12.18a.5.5,0,0,0-.5.5V5.34H3a.5.5,0,0,0-.39.2.49.49,0,0,0-.1.42l1,4H3A.49.49,0,0,0,2.6,10.16ZM12.68,7.79V6.34h2.08a.5.5,0,0,0,.5-.5V3.61h1.48V5.84a.5.5,0,0,0,.5.5h2.08V7.79Zm6.64-2.45H17.74V3.61h1.58ZM12.68,3.61h1.58V5.34H12.68Zm-6.8,10.8H7.1v12H5.88Zm5.34,0v12H8.1v-12Zm6.34,0v12H14.44v-12Zm6.34,0v12H20.78v-12Zm-4.12,12H18.56v-12h1.22Zm-6.34,0H12.22v-12h1.22ZM27,28.5H5V27.45H27Zm-.89-2.05H24.9v-12h1.23ZM27.89,11h.42l-.78,2.46H4.47L3.69,11h24.2Z"/></svg>